<mxfile host="app.diagrams.net" agent="Mozilla/5.0 (Windows NT 10.0; Win64; x64) AppleWebKit/537.36 (KHTML, like Gecko) Chrome/135.0.0.0 Safari/537.36" version="26.2.15">
  <diagram name="Trang-1" id="VczsodHdAIojHmpMHdXI">
    <mxGraphModel grid="1" page="1" gridSize="10" guides="1" tooltips="1" connect="1" arrows="1" fold="1" pageScale="1" pageWidth="827" pageHeight="1169" math="0" shadow="0">
      <root>
        <mxCell id="0" />
        <mxCell id="1" parent="0" />
        <mxCell id="siUt0EGsxXiFv9ltFgaP-23" value="" style="shape=table;startSize=0;container=1;collapsible=0;childLayout=tableLayout;strokeColor=default;align=center;verticalAlign=middle;fontFamily=Helvetica;fontSize=16;fontColor=default;fontStyle=0;fillColor=default;" vertex="1" parent="1">
          <mxGeometry x="100" y="210" width="260" height="352" as="geometry" />
        </mxCell>
        <mxCell id="siUt0EGsxXiFv9ltFgaP-24" value="" style="shape=tableRow;horizontal=0;startSize=0;swimlaneHead=0;swimlaneBody=0;strokeColor=inherit;top=0;left=0;bottom=0;right=0;collapsible=0;dropTarget=0;fillColor=none;points=[[0,0.5],[1,0.5]];portConstraint=eastwest;align=center;verticalAlign=middle;fontFamily=Helvetica;fontSize=16;fontColor=default;fontStyle=0;" vertex="1" parent="siUt0EGsxXiFv9ltFgaP-23">
          <mxGeometry width="260" height="44" as="geometry" />
        </mxCell>
        <mxCell id="siUt0EGsxXiFv9ltFgaP-25" value="&lt;font style=&quot;font-size: 9px;&quot;&gt;Colum Name&lt;/font&gt;" style="shape=partialRectangle;html=1;whiteSpace=wrap;connectable=0;strokeColor=inherit;overflow=hidden;fillColor=none;top=0;left=0;bottom=0;right=0;pointerEvents=1;align=center;verticalAlign=middle;fontFamily=Helvetica;fontSize=16;fontColor=default;fontStyle=0;" vertex="1" parent="siUt0EGsxXiFv9ltFgaP-24">
          <mxGeometry width="90" height="44" as="geometry">
            <mxRectangle width="90" height="44" as="alternateBounds" />
          </mxGeometry>
        </mxCell>
        <mxCell id="siUt0EGsxXiFv9ltFgaP-26" value="&lt;font size=&quot;1&quot;&gt;Data Type&lt;/font&gt;" style="shape=partialRectangle;html=1;whiteSpace=wrap;connectable=0;strokeColor=inherit;overflow=hidden;fillColor=none;top=0;left=0;bottom=0;right=0;pointerEvents=1;align=center;verticalAlign=middle;fontFamily=Helvetica;fontSize=16;fontColor=default;fontStyle=0;" vertex="1" parent="siUt0EGsxXiFv9ltFgaP-24">
          <mxGeometry x="90" width="170" height="44" as="geometry">
            <mxRectangle width="170" height="44" as="alternateBounds" />
          </mxGeometry>
        </mxCell>
        <mxCell id="siUt0EGsxXiFv9ltFgaP-43" value="" style="shape=tableRow;horizontal=0;startSize=0;swimlaneHead=0;swimlaneBody=0;strokeColor=inherit;top=0;left=0;bottom=0;right=0;collapsible=0;dropTarget=0;fillColor=none;points=[[0,0.5],[1,0.5]];portConstraint=eastwest;align=center;verticalAlign=middle;fontFamily=Helvetica;fontSize=16;fontColor=default;fontStyle=0;movable=0;resizable=0;rotatable=0;deletable=0;editable=0;locked=1;connectable=0;" vertex="1" parent="siUt0EGsxXiFv9ltFgaP-23">
          <mxGeometry y="44" width="260" height="44" as="geometry" />
        </mxCell>
        <mxCell id="siUt0EGsxXiFv9ltFgaP-44" value="SoHD" style="shape=partialRectangle;html=1;whiteSpace=wrap;connectable=0;strokeColor=inherit;overflow=hidden;fillColor=none;top=0;left=0;bottom=0;right=0;pointerEvents=1;align=center;verticalAlign=middle;fontFamily=Helvetica;fontSize=16;fontColor=default;fontStyle=0;movable=0;resizable=0;rotatable=0;deletable=0;editable=0;locked=1;" vertex="1" parent="siUt0EGsxXiFv9ltFgaP-43">
          <mxGeometry width="90" height="44" as="geometry">
            <mxRectangle width="90" height="44" as="alternateBounds" />
          </mxGeometry>
        </mxCell>
        <mxCell id="siUt0EGsxXiFv9ltFgaP-45" value="char(10)" style="shape=partialRectangle;html=1;whiteSpace=wrap;connectable=0;strokeColor=inherit;overflow=hidden;fillColor=none;top=0;left=0;bottom=0;right=0;pointerEvents=1;align=center;verticalAlign=middle;fontFamily=Helvetica;fontSize=16;fontColor=default;fontStyle=0;" vertex="1" parent="siUt0EGsxXiFv9ltFgaP-43">
          <mxGeometry x="90" width="170" height="44" as="geometry">
            <mxRectangle width="170" height="44" as="alternateBounds" />
          </mxGeometry>
        </mxCell>
        <mxCell id="siUt0EGsxXiFv9ltFgaP-40" value="" style="shape=tableRow;horizontal=0;startSize=0;swimlaneHead=0;swimlaneBody=0;strokeColor=inherit;top=0;left=0;bottom=0;right=0;collapsible=0;dropTarget=0;fillColor=none;points=[[0,0.5],[1,0.5]];portConstraint=eastwest;align=center;verticalAlign=middle;fontFamily=Helvetica;fontSize=16;fontColor=default;fontStyle=0;" vertex="1" parent="siUt0EGsxXiFv9ltFgaP-23">
          <mxGeometry y="88" width="260" height="44" as="geometry" />
        </mxCell>
        <mxCell id="siUt0EGsxXiFv9ltFgaP-41" value="masp" style="shape=partialRectangle;html=1;whiteSpace=wrap;connectable=0;strokeColor=inherit;overflow=hidden;fillColor=none;top=0;left=0;bottom=0;right=0;pointerEvents=1;align=center;verticalAlign=middle;fontFamily=Helvetica;fontSize=16;fontColor=default;fontStyle=0;" vertex="1" parent="siUt0EGsxXiFv9ltFgaP-40">
          <mxGeometry width="90" height="44" as="geometry">
            <mxRectangle width="90" height="44" as="alternateBounds" />
          </mxGeometry>
        </mxCell>
        <mxCell id="siUt0EGsxXiFv9ltFgaP-42" value="char(10)" style="shape=partialRectangle;html=1;whiteSpace=wrap;connectable=0;strokeColor=inherit;overflow=hidden;fillColor=none;top=0;left=0;bottom=0;right=0;pointerEvents=1;align=center;verticalAlign=middle;fontFamily=Helvetica;fontSize=16;fontColor=default;fontStyle=0;" vertex="1" parent="siUt0EGsxXiFv9ltFgaP-40">
          <mxGeometry x="90" width="170" height="44" as="geometry">
            <mxRectangle width="170" height="44" as="alternateBounds" />
          </mxGeometry>
        </mxCell>
        <mxCell id="siUt0EGsxXiFv9ltFgaP-27" value="" style="shape=tableRow;horizontal=0;startSize=0;swimlaneHead=0;swimlaneBody=0;strokeColor=inherit;top=0;left=0;bottom=0;right=0;collapsible=0;dropTarget=0;fillColor=none;points=[[0,0.5],[1,0.5]];portConstraint=eastwest;align=center;verticalAlign=middle;fontFamily=Helvetica;fontSize=16;fontColor=default;fontStyle=0;" vertex="1" parent="siUt0EGsxXiFv9ltFgaP-23">
          <mxGeometry y="132" width="260" height="44" as="geometry" />
        </mxCell>
        <mxCell id="siUt0EGsxXiFv9ltFgaP-28" value="soluong" style="shape=partialRectangle;html=1;whiteSpace=wrap;connectable=0;strokeColor=inherit;overflow=hidden;fillColor=none;top=0;left=0;bottom=0;right=0;pointerEvents=1;align=center;verticalAlign=middle;fontFamily=Helvetica;fontSize=16;fontColor=default;fontStyle=0;" vertex="1" parent="siUt0EGsxXiFv9ltFgaP-27">
          <mxGeometry width="90" height="44" as="geometry">
            <mxRectangle width="90" height="44" as="alternateBounds" />
          </mxGeometry>
        </mxCell>
        <mxCell id="siUt0EGsxXiFv9ltFgaP-29" value="float" style="shape=partialRectangle;html=1;whiteSpace=wrap;connectable=0;strokeColor=inherit;overflow=hidden;fillColor=none;top=0;left=0;bottom=0;right=0;pointerEvents=1;align=center;verticalAlign=middle;fontFamily=Helvetica;fontSize=16;fontColor=default;fontStyle=0;" vertex="1" parent="siUt0EGsxXiFv9ltFgaP-27">
          <mxGeometry x="90" width="170" height="44" as="geometry">
            <mxRectangle width="170" height="44" as="alternateBounds" />
          </mxGeometry>
        </mxCell>
        <mxCell id="siUt0EGsxXiFv9ltFgaP-30" value="" style="shape=tableRow;horizontal=0;startSize=0;swimlaneHead=0;swimlaneBody=0;strokeColor=inherit;top=0;left=0;bottom=0;right=0;collapsible=0;dropTarget=0;fillColor=none;points=[[0,0.5],[1,0.5]];portConstraint=eastwest;align=center;verticalAlign=middle;fontFamily=Helvetica;fontSize=16;fontColor=default;fontStyle=0;" vertex="1" parent="siUt0EGsxXiFv9ltFgaP-23">
          <mxGeometry y="176" width="260" height="44" as="geometry" />
        </mxCell>
        <mxCell id="siUt0EGsxXiFv9ltFgaP-31" value="giaban" style="shape=partialRectangle;html=1;whiteSpace=wrap;connectable=0;strokeColor=inherit;overflow=hidden;fillColor=none;top=0;left=0;bottom=0;right=0;pointerEvents=1;align=center;verticalAlign=middle;fontFamily=Helvetica;fontSize=16;fontColor=default;fontStyle=0;" vertex="1" parent="siUt0EGsxXiFv9ltFgaP-30">
          <mxGeometry width="90" height="44" as="geometry">
            <mxRectangle width="90" height="44" as="alternateBounds" />
          </mxGeometry>
        </mxCell>
        <mxCell id="siUt0EGsxXiFv9ltFgaP-32" value="float" style="shape=partialRectangle;html=1;whiteSpace=wrap;connectable=0;strokeColor=inherit;overflow=hidden;fillColor=none;top=0;left=0;bottom=0;right=0;pointerEvents=1;align=center;verticalAlign=middle;fontFamily=Helvetica;fontSize=16;fontColor=default;fontStyle=0;" vertex="1" parent="siUt0EGsxXiFv9ltFgaP-30">
          <mxGeometry x="90" width="170" height="44" as="geometry">
            <mxRectangle width="170" height="44" as="alternateBounds" />
          </mxGeometry>
        </mxCell>
        <mxCell id="siUt0EGsxXiFv9ltFgaP-33" value="" style="shape=tableRow;horizontal=0;startSize=0;swimlaneHead=0;swimlaneBody=0;strokeColor=inherit;top=0;left=0;bottom=0;right=0;collapsible=0;dropTarget=0;fillColor=none;points=[[0,0.5],[1,0.5]];portConstraint=eastwest;align=center;verticalAlign=middle;fontFamily=Helvetica;fontSize=16;fontColor=default;fontStyle=0;" vertex="1" parent="siUt0EGsxXiFv9ltFgaP-23">
          <mxGeometry y="220" width="260" height="44" as="geometry" />
        </mxCell>
        <mxCell id="siUt0EGsxXiFv9ltFgaP-34" value="" style="shape=partialRectangle;html=1;whiteSpace=wrap;connectable=0;strokeColor=inherit;overflow=hidden;fillColor=none;top=0;left=0;bottom=0;right=0;pointerEvents=1;align=center;verticalAlign=middle;fontFamily=Helvetica;fontSize=16;fontColor=default;fontStyle=0;" vertex="1" parent="siUt0EGsxXiFv9ltFgaP-33">
          <mxGeometry width="90" height="44" as="geometry">
            <mxRectangle width="90" height="44" as="alternateBounds" />
          </mxGeometry>
        </mxCell>
        <mxCell id="siUt0EGsxXiFv9ltFgaP-35" value="" style="shape=partialRectangle;html=1;whiteSpace=wrap;connectable=0;strokeColor=inherit;overflow=hidden;fillColor=none;top=0;left=0;bottom=0;right=0;pointerEvents=1;align=center;verticalAlign=middle;fontFamily=Helvetica;fontSize=16;fontColor=default;fontStyle=0;" vertex="1" parent="siUt0EGsxXiFv9ltFgaP-33">
          <mxGeometry x="90" width="170" height="44" as="geometry">
            <mxRectangle width="170" height="44" as="alternateBounds" />
          </mxGeometry>
        </mxCell>
        <mxCell id="siUt0EGsxXiFv9ltFgaP-36" value="" style="shape=tableRow;horizontal=0;startSize=0;swimlaneHead=0;swimlaneBody=0;strokeColor=inherit;top=0;left=0;bottom=0;right=0;collapsible=0;dropTarget=0;fillColor=none;points=[[0,0.5],[1,0.5]];portConstraint=eastwest;align=center;verticalAlign=middle;fontFamily=Helvetica;fontSize=16;fontColor=default;fontStyle=0;" vertex="1" parent="siUt0EGsxXiFv9ltFgaP-23">
          <mxGeometry y="264" width="260" height="44" as="geometry" />
        </mxCell>
        <mxCell id="siUt0EGsxXiFv9ltFgaP-37" value="" style="shape=partialRectangle;html=1;whiteSpace=wrap;connectable=0;strokeColor=inherit;overflow=hidden;fillColor=none;top=0;left=0;bottom=0;right=0;pointerEvents=1;align=center;verticalAlign=middle;fontFamily=Helvetica;fontSize=16;fontColor=default;fontStyle=0;" vertex="1" parent="siUt0EGsxXiFv9ltFgaP-36">
          <mxGeometry width="90" height="44" as="geometry">
            <mxRectangle width="90" height="44" as="alternateBounds" />
          </mxGeometry>
        </mxCell>
        <mxCell id="siUt0EGsxXiFv9ltFgaP-38" value="" style="shape=partialRectangle;html=1;whiteSpace=wrap;connectable=0;strokeColor=inherit;overflow=hidden;fillColor=none;top=0;left=0;bottom=0;right=0;pointerEvents=1;align=center;verticalAlign=middle;fontFamily=Helvetica;fontSize=16;fontColor=default;fontStyle=0;" vertex="1" parent="siUt0EGsxXiFv9ltFgaP-36">
          <mxGeometry x="90" width="170" height="44" as="geometry">
            <mxRectangle width="170" height="44" as="alternateBounds" />
          </mxGeometry>
        </mxCell>
        <mxCell id="siUt0EGsxXiFv9ltFgaP-46" value="" style="shape=tableRow;horizontal=0;startSize=0;swimlaneHead=0;swimlaneBody=0;strokeColor=inherit;top=0;left=0;bottom=0;right=0;collapsible=0;dropTarget=0;fillColor=none;points=[[0,0.5],[1,0.5]];portConstraint=eastwest;align=center;verticalAlign=middle;fontFamily=Helvetica;fontSize=16;fontColor=default;fontStyle=0;" vertex="1" parent="siUt0EGsxXiFv9ltFgaP-23">
          <mxGeometry y="308" width="260" height="44" as="geometry" />
        </mxCell>
        <mxCell id="siUt0EGsxXiFv9ltFgaP-47" value="" style="shape=partialRectangle;html=1;whiteSpace=wrap;connectable=0;strokeColor=inherit;overflow=hidden;fillColor=none;top=0;left=0;bottom=0;right=0;pointerEvents=1;align=center;verticalAlign=middle;fontFamily=Helvetica;fontSize=16;fontColor=default;fontStyle=0;" vertex="1" parent="siUt0EGsxXiFv9ltFgaP-46">
          <mxGeometry width="90" height="44" as="geometry">
            <mxRectangle width="90" height="44" as="alternateBounds" />
          </mxGeometry>
        </mxCell>
        <mxCell id="siUt0EGsxXiFv9ltFgaP-48" value="" style="shape=partialRectangle;html=1;whiteSpace=wrap;connectable=0;strokeColor=inherit;overflow=hidden;fillColor=none;top=0;left=0;bottom=0;right=0;pointerEvents=1;align=center;verticalAlign=middle;fontFamily=Helvetica;fontSize=16;fontColor=default;fontStyle=0;" vertex="1" parent="siUt0EGsxXiFv9ltFgaP-46">
          <mxGeometry x="90" width="170" height="44" as="geometry">
            <mxRectangle width="170" height="44" as="alternateBounds" />
          </mxGeometry>
        </mxCell>
        <mxCell id="siUt0EGsxXiFv9ltFgaP-49" value="" style="shape=table;startSize=0;container=1;collapsible=0;childLayout=tableLayout;strokeColor=default;align=center;verticalAlign=middle;fontFamily=Helvetica;fontSize=16;fontColor=default;fontStyle=0;fillColor=default;" vertex="1" parent="1">
          <mxGeometry x="470" y="10" width="220" height="352" as="geometry" />
        </mxCell>
        <mxCell id="siUt0EGsxXiFv9ltFgaP-50" value="" style="shape=tableRow;horizontal=0;startSize=0;swimlaneHead=0;swimlaneBody=0;strokeColor=inherit;top=0;left=0;bottom=0;right=0;collapsible=0;dropTarget=0;fillColor=none;points=[[0,0.5],[1,0.5]];portConstraint=eastwest;align=center;verticalAlign=middle;fontFamily=Helvetica;fontSize=16;fontColor=default;fontStyle=0;" vertex="1" parent="siUt0EGsxXiFv9ltFgaP-49">
          <mxGeometry width="220" height="44" as="geometry" />
        </mxCell>
        <mxCell id="siUt0EGsxXiFv9ltFgaP-51" value="&lt;font style=&quot;font-size: 9px;&quot;&gt;Colum Name&lt;/font&gt;" style="shape=partialRectangle;html=1;whiteSpace=wrap;connectable=0;strokeColor=inherit;overflow=hidden;fillColor=none;top=0;left=0;bottom=0;right=0;pointerEvents=1;align=center;verticalAlign=middle;fontFamily=Helvetica;fontSize=16;fontColor=default;fontStyle=0;" vertex="1" parent="siUt0EGsxXiFv9ltFgaP-50">
          <mxGeometry width="64" height="44" as="geometry">
            <mxRectangle width="64" height="44" as="alternateBounds" />
          </mxGeometry>
        </mxCell>
        <mxCell id="siUt0EGsxXiFv9ltFgaP-52" value="&lt;font size=&quot;1&quot;&gt;Data Type&lt;/font&gt;" style="shape=partialRectangle;html=1;whiteSpace=wrap;connectable=0;strokeColor=inherit;overflow=hidden;fillColor=none;top=0;left=0;bottom=0;right=0;pointerEvents=1;align=center;verticalAlign=middle;fontFamily=Helvetica;fontSize=16;fontColor=default;fontStyle=0;" vertex="1" parent="siUt0EGsxXiFv9ltFgaP-50">
          <mxGeometry x="64" width="156" height="44" as="geometry">
            <mxRectangle width="156" height="44" as="alternateBounds" />
          </mxGeometry>
        </mxCell>
        <mxCell id="siUt0EGsxXiFv9ltFgaP-53" value="" style="shape=tableRow;horizontal=0;startSize=0;swimlaneHead=0;swimlaneBody=0;strokeColor=inherit;top=0;left=0;bottom=0;right=0;collapsible=0;dropTarget=0;fillColor=none;points=[[0,0.5],[1,0.5]];portConstraint=eastwest;align=center;verticalAlign=middle;fontFamily=Helvetica;fontSize=16;fontColor=default;fontStyle=0;" vertex="1" parent="siUt0EGsxXiFv9ltFgaP-49">
          <mxGeometry y="44" width="220" height="44" as="geometry" />
        </mxCell>
        <mxCell id="siUt0EGsxXiFv9ltFgaP-54" value="" style="shape=partialRectangle;html=1;whiteSpace=wrap;connectable=0;strokeColor=inherit;overflow=hidden;fillColor=none;top=0;left=0;bottom=0;right=0;pointerEvents=1;align=center;verticalAlign=middle;fontFamily=Helvetica;fontSize=16;fontColor=default;fontStyle=0;" vertex="1" parent="siUt0EGsxXiFv9ltFgaP-53">
          <mxGeometry width="64" height="44" as="geometry">
            <mxRectangle width="64" height="44" as="alternateBounds" />
          </mxGeometry>
        </mxCell>
        <mxCell id="siUt0EGsxXiFv9ltFgaP-55" value="" style="shape=partialRectangle;html=1;whiteSpace=wrap;connectable=0;strokeColor=inherit;overflow=hidden;fillColor=none;top=0;left=0;bottom=0;right=0;pointerEvents=1;align=center;verticalAlign=middle;fontFamily=Helvetica;fontSize=16;fontColor=default;fontStyle=0;" vertex="1" parent="siUt0EGsxXiFv9ltFgaP-53">
          <mxGeometry x="64" width="156" height="44" as="geometry">
            <mxRectangle width="156" height="44" as="alternateBounds" />
          </mxGeometry>
        </mxCell>
        <mxCell id="siUt0EGsxXiFv9ltFgaP-56" value="" style="shape=tableRow;horizontal=0;startSize=0;swimlaneHead=0;swimlaneBody=0;strokeColor=inherit;top=0;left=0;bottom=0;right=0;collapsible=0;dropTarget=0;fillColor=none;points=[[0,0.5],[1,0.5]];portConstraint=eastwest;align=center;verticalAlign=middle;fontFamily=Helvetica;fontSize=16;fontColor=default;fontStyle=0;" vertex="1" parent="siUt0EGsxXiFv9ltFgaP-49">
          <mxGeometry y="88" width="220" height="44" as="geometry" />
        </mxCell>
        <mxCell id="siUt0EGsxXiFv9ltFgaP-57" value="" style="shape=partialRectangle;html=1;whiteSpace=wrap;connectable=0;strokeColor=inherit;overflow=hidden;fillColor=none;top=0;left=0;bottom=0;right=0;pointerEvents=1;align=center;verticalAlign=middle;fontFamily=Helvetica;fontSize=16;fontColor=default;fontStyle=0;" vertex="1" parent="siUt0EGsxXiFv9ltFgaP-56">
          <mxGeometry width="64" height="44" as="geometry">
            <mxRectangle width="64" height="44" as="alternateBounds" />
          </mxGeometry>
        </mxCell>
        <mxCell id="siUt0EGsxXiFv9ltFgaP-58" value="" style="shape=partialRectangle;html=1;whiteSpace=wrap;connectable=0;strokeColor=inherit;overflow=hidden;fillColor=none;top=0;left=0;bottom=0;right=0;pointerEvents=1;align=center;verticalAlign=middle;fontFamily=Helvetica;fontSize=16;fontColor=default;fontStyle=0;" vertex="1" parent="siUt0EGsxXiFv9ltFgaP-56">
          <mxGeometry x="64" width="156" height="44" as="geometry">
            <mxRectangle width="156" height="44" as="alternateBounds" />
          </mxGeometry>
        </mxCell>
        <mxCell id="siUt0EGsxXiFv9ltFgaP-59" value="" style="shape=tableRow;horizontal=0;startSize=0;swimlaneHead=0;swimlaneBody=0;strokeColor=inherit;top=0;left=0;bottom=0;right=0;collapsible=0;dropTarget=0;fillColor=none;points=[[0,0.5],[1,0.5]];portConstraint=eastwest;align=center;verticalAlign=middle;fontFamily=Helvetica;fontSize=16;fontColor=default;fontStyle=0;" vertex="1" parent="siUt0EGsxXiFv9ltFgaP-49">
          <mxGeometry y="132" width="220" height="44" as="geometry" />
        </mxCell>
        <mxCell id="siUt0EGsxXiFv9ltFgaP-60" value="" style="shape=partialRectangle;html=1;whiteSpace=wrap;connectable=0;strokeColor=inherit;overflow=hidden;fillColor=none;top=0;left=0;bottom=0;right=0;pointerEvents=1;align=center;verticalAlign=middle;fontFamily=Helvetica;fontSize=16;fontColor=default;fontStyle=0;" vertex="1" parent="siUt0EGsxXiFv9ltFgaP-59">
          <mxGeometry width="64" height="44" as="geometry">
            <mxRectangle width="64" height="44" as="alternateBounds" />
          </mxGeometry>
        </mxCell>
        <mxCell id="siUt0EGsxXiFv9ltFgaP-61" value="" style="shape=partialRectangle;html=1;whiteSpace=wrap;connectable=0;strokeColor=inherit;overflow=hidden;fillColor=none;top=0;left=0;bottom=0;right=0;pointerEvents=1;align=center;verticalAlign=middle;fontFamily=Helvetica;fontSize=16;fontColor=default;fontStyle=0;" vertex="1" parent="siUt0EGsxXiFv9ltFgaP-59">
          <mxGeometry x="64" width="156" height="44" as="geometry">
            <mxRectangle width="156" height="44" as="alternateBounds" />
          </mxGeometry>
        </mxCell>
        <mxCell id="siUt0EGsxXiFv9ltFgaP-62" value="" style="shape=tableRow;horizontal=0;startSize=0;swimlaneHead=0;swimlaneBody=0;strokeColor=inherit;top=0;left=0;bottom=0;right=0;collapsible=0;dropTarget=0;fillColor=none;points=[[0,0.5],[1,0.5]];portConstraint=eastwest;align=center;verticalAlign=middle;fontFamily=Helvetica;fontSize=16;fontColor=default;fontStyle=0;" vertex="1" parent="siUt0EGsxXiFv9ltFgaP-49">
          <mxGeometry y="176" width="220" height="44" as="geometry" />
        </mxCell>
        <mxCell id="siUt0EGsxXiFv9ltFgaP-63" value="" style="shape=partialRectangle;html=1;whiteSpace=wrap;connectable=0;strokeColor=inherit;overflow=hidden;fillColor=none;top=0;left=0;bottom=0;right=0;pointerEvents=1;align=center;verticalAlign=middle;fontFamily=Helvetica;fontSize=16;fontColor=default;fontStyle=0;" vertex="1" parent="siUt0EGsxXiFv9ltFgaP-62">
          <mxGeometry width="64" height="44" as="geometry">
            <mxRectangle width="64" height="44" as="alternateBounds" />
          </mxGeometry>
        </mxCell>
        <mxCell id="siUt0EGsxXiFv9ltFgaP-64" value="" style="shape=partialRectangle;html=1;whiteSpace=wrap;connectable=0;strokeColor=inherit;overflow=hidden;fillColor=none;top=0;left=0;bottom=0;right=0;pointerEvents=1;align=center;verticalAlign=middle;fontFamily=Helvetica;fontSize=16;fontColor=default;fontStyle=0;" vertex="1" parent="siUt0EGsxXiFv9ltFgaP-62">
          <mxGeometry x="64" width="156" height="44" as="geometry">
            <mxRectangle width="156" height="44" as="alternateBounds" />
          </mxGeometry>
        </mxCell>
        <mxCell id="siUt0EGsxXiFv9ltFgaP-65" value="" style="shape=tableRow;horizontal=0;startSize=0;swimlaneHead=0;swimlaneBody=0;strokeColor=inherit;top=0;left=0;bottom=0;right=0;collapsible=0;dropTarget=0;fillColor=none;points=[[0,0.5],[1,0.5]];portConstraint=eastwest;align=center;verticalAlign=middle;fontFamily=Helvetica;fontSize=16;fontColor=default;fontStyle=0;" vertex="1" parent="siUt0EGsxXiFv9ltFgaP-49">
          <mxGeometry y="220" width="220" height="44" as="geometry" />
        </mxCell>
        <mxCell id="siUt0EGsxXiFv9ltFgaP-66" value="" style="shape=partialRectangle;html=1;whiteSpace=wrap;connectable=0;strokeColor=inherit;overflow=hidden;fillColor=none;top=0;left=0;bottom=0;right=0;pointerEvents=1;align=center;verticalAlign=middle;fontFamily=Helvetica;fontSize=16;fontColor=default;fontStyle=0;" vertex="1" parent="siUt0EGsxXiFv9ltFgaP-65">
          <mxGeometry width="64" height="44" as="geometry">
            <mxRectangle width="64" height="44" as="alternateBounds" />
          </mxGeometry>
        </mxCell>
        <mxCell id="siUt0EGsxXiFv9ltFgaP-67" value="" style="shape=partialRectangle;html=1;whiteSpace=wrap;connectable=0;strokeColor=inherit;overflow=hidden;fillColor=none;top=0;left=0;bottom=0;right=0;pointerEvents=1;align=center;verticalAlign=middle;fontFamily=Helvetica;fontSize=16;fontColor=default;fontStyle=0;" vertex="1" parent="siUt0EGsxXiFv9ltFgaP-65">
          <mxGeometry x="64" width="156" height="44" as="geometry">
            <mxRectangle width="156" height="44" as="alternateBounds" />
          </mxGeometry>
        </mxCell>
        <mxCell id="siUt0EGsxXiFv9ltFgaP-68" value="" style="shape=tableRow;horizontal=0;startSize=0;swimlaneHead=0;swimlaneBody=0;strokeColor=inherit;top=0;left=0;bottom=0;right=0;collapsible=0;dropTarget=0;fillColor=none;points=[[0,0.5],[1,0.5]];portConstraint=eastwest;align=center;verticalAlign=middle;fontFamily=Helvetica;fontSize=16;fontColor=default;fontStyle=0;" vertex="1" parent="siUt0EGsxXiFv9ltFgaP-49">
          <mxGeometry y="264" width="220" height="44" as="geometry" />
        </mxCell>
        <mxCell id="siUt0EGsxXiFv9ltFgaP-69" value="" style="shape=partialRectangle;html=1;whiteSpace=wrap;connectable=0;strokeColor=inherit;overflow=hidden;fillColor=none;top=0;left=0;bottom=0;right=0;pointerEvents=1;align=center;verticalAlign=middle;fontFamily=Helvetica;fontSize=16;fontColor=default;fontStyle=0;" vertex="1" parent="siUt0EGsxXiFv9ltFgaP-68">
          <mxGeometry width="64" height="44" as="geometry">
            <mxRectangle width="64" height="44" as="alternateBounds" />
          </mxGeometry>
        </mxCell>
        <mxCell id="siUt0EGsxXiFv9ltFgaP-70" value="" style="shape=partialRectangle;html=1;whiteSpace=wrap;connectable=0;strokeColor=inherit;overflow=hidden;fillColor=none;top=0;left=0;bottom=0;right=0;pointerEvents=1;align=center;verticalAlign=middle;fontFamily=Helvetica;fontSize=16;fontColor=default;fontStyle=0;" vertex="1" parent="siUt0EGsxXiFv9ltFgaP-68">
          <mxGeometry x="64" width="156" height="44" as="geometry">
            <mxRectangle width="156" height="44" as="alternateBounds" />
          </mxGeometry>
        </mxCell>
        <mxCell id="siUt0EGsxXiFv9ltFgaP-71" value="" style="shape=tableRow;horizontal=0;startSize=0;swimlaneHead=0;swimlaneBody=0;strokeColor=inherit;top=0;left=0;bottom=0;right=0;collapsible=0;dropTarget=0;fillColor=none;points=[[0,0.5],[1,0.5]];portConstraint=eastwest;align=center;verticalAlign=middle;fontFamily=Helvetica;fontSize=16;fontColor=default;fontStyle=0;" vertex="1" parent="siUt0EGsxXiFv9ltFgaP-49">
          <mxGeometry y="308" width="220" height="44" as="geometry" />
        </mxCell>
        <mxCell id="siUt0EGsxXiFv9ltFgaP-72" value="" style="shape=partialRectangle;html=1;whiteSpace=wrap;connectable=0;strokeColor=inherit;overflow=hidden;fillColor=none;top=0;left=0;bottom=0;right=0;pointerEvents=1;align=center;verticalAlign=middle;fontFamily=Helvetica;fontSize=16;fontColor=default;fontStyle=0;" vertex="1" parent="siUt0EGsxXiFv9ltFgaP-71">
          <mxGeometry width="64" height="44" as="geometry">
            <mxRectangle width="64" height="44" as="alternateBounds" />
          </mxGeometry>
        </mxCell>
        <mxCell id="siUt0EGsxXiFv9ltFgaP-73" value="" style="shape=partialRectangle;html=1;whiteSpace=wrap;connectable=0;strokeColor=inherit;overflow=hidden;fillColor=none;top=0;left=0;bottom=0;right=0;pointerEvents=1;align=center;verticalAlign=middle;fontFamily=Helvetica;fontSize=16;fontColor=default;fontStyle=0;" vertex="1" parent="siUt0EGsxXiFv9ltFgaP-71">
          <mxGeometry x="64" width="156" height="44" as="geometry">
            <mxRectangle width="156" height="44" as="alternateBounds" />
          </mxGeometry>
        </mxCell>
        <mxCell id="siUt0EGsxXiFv9ltFgaP-74" value="" style="endArrow=classic;html=1;rounded=0;fontFamily=Helvetica;fontSize=16;fontColor=default;fontStyle=0;entryX=0;entryY=0.5;entryDx=0;entryDy=0;exitX=1.005;exitY=0.735;exitDx=0;exitDy=0;exitPerimeter=0;" edge="1" parent="1" source="siUt0EGsxXiFv9ltFgaP-40" target="siUt0EGsxXiFv9ltFgaP-53">
          <mxGeometry width="50" height="50" relative="1" as="geometry">
            <mxPoint x="320" y="230" as="sourcePoint" />
            <mxPoint x="370" y="180" as="targetPoint" />
            <Array as="points">
              <mxPoint x="400" y="270" />
            </Array>
          </mxGeometry>
        </mxCell>
        <mxCell id="siUt0EGsxXiFv9ltFgaP-75" value="" style="shape=table;startSize=0;container=1;collapsible=0;childLayout=tableLayout;strokeColor=default;align=center;verticalAlign=middle;fontFamily=Helvetica;fontSize=16;fontColor=default;fontStyle=0;fillColor=default;" vertex="1" parent="1">
          <mxGeometry x="940" y="1040" width="220" height="352" as="geometry" />
        </mxCell>
        <mxCell id="siUt0EGsxXiFv9ltFgaP-76" value="" style="shape=tableRow;horizontal=0;startSize=0;swimlaneHead=0;swimlaneBody=0;strokeColor=inherit;top=0;left=0;bottom=0;right=0;collapsible=0;dropTarget=0;fillColor=none;points=[[0,0.5],[1,0.5]];portConstraint=eastwest;align=center;verticalAlign=middle;fontFamily=Helvetica;fontSize=16;fontColor=default;fontStyle=0;" vertex="1" parent="siUt0EGsxXiFv9ltFgaP-75">
          <mxGeometry width="220" height="44" as="geometry" />
        </mxCell>
        <mxCell id="siUt0EGsxXiFv9ltFgaP-77" value="&lt;font style=&quot;font-size: 9px;&quot;&gt;Colum Name&lt;/font&gt;" style="shape=partialRectangle;html=1;whiteSpace=wrap;connectable=0;strokeColor=inherit;overflow=hidden;fillColor=none;top=0;left=0;bottom=0;right=0;pointerEvents=1;align=center;verticalAlign=middle;fontFamily=Helvetica;fontSize=16;fontColor=default;fontStyle=0;" vertex="1" parent="siUt0EGsxXiFv9ltFgaP-76">
          <mxGeometry width="64" height="44" as="geometry">
            <mxRectangle width="64" height="44" as="alternateBounds" />
          </mxGeometry>
        </mxCell>
        <mxCell id="siUt0EGsxXiFv9ltFgaP-78" value="&lt;font size=&quot;1&quot;&gt;Data Type&lt;/font&gt;" style="shape=partialRectangle;html=1;whiteSpace=wrap;connectable=0;strokeColor=inherit;overflow=hidden;fillColor=none;top=0;left=0;bottom=0;right=0;pointerEvents=1;align=center;verticalAlign=middle;fontFamily=Helvetica;fontSize=16;fontColor=default;fontStyle=0;" vertex="1" parent="siUt0EGsxXiFv9ltFgaP-76">
          <mxGeometry x="64" width="156" height="44" as="geometry">
            <mxRectangle width="156" height="44" as="alternateBounds" />
          </mxGeometry>
        </mxCell>
        <mxCell id="siUt0EGsxXiFv9ltFgaP-79" value="" style="shape=tableRow;horizontal=0;startSize=0;swimlaneHead=0;swimlaneBody=0;strokeColor=inherit;top=0;left=0;bottom=0;right=0;collapsible=0;dropTarget=0;fillColor=none;points=[[0,0.5],[1,0.5]];portConstraint=eastwest;align=center;verticalAlign=middle;fontFamily=Helvetica;fontSize=16;fontColor=default;fontStyle=0;" vertex="1" parent="siUt0EGsxXiFv9ltFgaP-75">
          <mxGeometry y="44" width="220" height="44" as="geometry" />
        </mxCell>
        <mxCell id="siUt0EGsxXiFv9ltFgaP-80" value="" style="shape=partialRectangle;html=1;whiteSpace=wrap;connectable=0;strokeColor=inherit;overflow=hidden;fillColor=none;top=0;left=0;bottom=0;right=0;pointerEvents=1;align=center;verticalAlign=middle;fontFamily=Helvetica;fontSize=16;fontColor=default;fontStyle=0;" vertex="1" parent="siUt0EGsxXiFv9ltFgaP-79">
          <mxGeometry width="64" height="44" as="geometry">
            <mxRectangle width="64" height="44" as="alternateBounds" />
          </mxGeometry>
        </mxCell>
        <mxCell id="siUt0EGsxXiFv9ltFgaP-81" value="" style="shape=partialRectangle;html=1;whiteSpace=wrap;connectable=0;strokeColor=inherit;overflow=hidden;fillColor=none;top=0;left=0;bottom=0;right=0;pointerEvents=1;align=center;verticalAlign=middle;fontFamily=Helvetica;fontSize=16;fontColor=default;fontStyle=0;" vertex="1" parent="siUt0EGsxXiFv9ltFgaP-79">
          <mxGeometry x="64" width="156" height="44" as="geometry">
            <mxRectangle width="156" height="44" as="alternateBounds" />
          </mxGeometry>
        </mxCell>
        <mxCell id="siUt0EGsxXiFv9ltFgaP-82" value="" style="shape=tableRow;horizontal=0;startSize=0;swimlaneHead=0;swimlaneBody=0;strokeColor=inherit;top=0;left=0;bottom=0;right=0;collapsible=0;dropTarget=0;fillColor=none;points=[[0,0.5],[1,0.5]];portConstraint=eastwest;align=center;verticalAlign=middle;fontFamily=Helvetica;fontSize=16;fontColor=default;fontStyle=0;" vertex="1" parent="siUt0EGsxXiFv9ltFgaP-75">
          <mxGeometry y="88" width="220" height="44" as="geometry" />
        </mxCell>
        <mxCell id="siUt0EGsxXiFv9ltFgaP-83" value="" style="shape=partialRectangle;html=1;whiteSpace=wrap;connectable=0;strokeColor=inherit;overflow=hidden;fillColor=none;top=0;left=0;bottom=0;right=0;pointerEvents=1;align=center;verticalAlign=middle;fontFamily=Helvetica;fontSize=16;fontColor=default;fontStyle=0;" vertex="1" parent="siUt0EGsxXiFv9ltFgaP-82">
          <mxGeometry width="64" height="44" as="geometry">
            <mxRectangle width="64" height="44" as="alternateBounds" />
          </mxGeometry>
        </mxCell>
        <mxCell id="siUt0EGsxXiFv9ltFgaP-84" value="" style="shape=partialRectangle;html=1;whiteSpace=wrap;connectable=0;strokeColor=inherit;overflow=hidden;fillColor=none;top=0;left=0;bottom=0;right=0;pointerEvents=1;align=center;verticalAlign=middle;fontFamily=Helvetica;fontSize=16;fontColor=default;fontStyle=0;" vertex="1" parent="siUt0EGsxXiFv9ltFgaP-82">
          <mxGeometry x="64" width="156" height="44" as="geometry">
            <mxRectangle width="156" height="44" as="alternateBounds" />
          </mxGeometry>
        </mxCell>
        <mxCell id="siUt0EGsxXiFv9ltFgaP-85" value="" style="shape=tableRow;horizontal=0;startSize=0;swimlaneHead=0;swimlaneBody=0;strokeColor=inherit;top=0;left=0;bottom=0;right=0;collapsible=0;dropTarget=0;fillColor=none;points=[[0,0.5],[1,0.5]];portConstraint=eastwest;align=center;verticalAlign=middle;fontFamily=Helvetica;fontSize=16;fontColor=default;fontStyle=0;" vertex="1" parent="siUt0EGsxXiFv9ltFgaP-75">
          <mxGeometry y="132" width="220" height="44" as="geometry" />
        </mxCell>
        <mxCell id="siUt0EGsxXiFv9ltFgaP-86" value="" style="shape=partialRectangle;html=1;whiteSpace=wrap;connectable=0;strokeColor=inherit;overflow=hidden;fillColor=none;top=0;left=0;bottom=0;right=0;pointerEvents=1;align=center;verticalAlign=middle;fontFamily=Helvetica;fontSize=16;fontColor=default;fontStyle=0;" vertex="1" parent="siUt0EGsxXiFv9ltFgaP-85">
          <mxGeometry width="64" height="44" as="geometry">
            <mxRectangle width="64" height="44" as="alternateBounds" />
          </mxGeometry>
        </mxCell>
        <mxCell id="siUt0EGsxXiFv9ltFgaP-87" value="" style="shape=partialRectangle;html=1;whiteSpace=wrap;connectable=0;strokeColor=inherit;overflow=hidden;fillColor=none;top=0;left=0;bottom=0;right=0;pointerEvents=1;align=center;verticalAlign=middle;fontFamily=Helvetica;fontSize=16;fontColor=default;fontStyle=0;" vertex="1" parent="siUt0EGsxXiFv9ltFgaP-85">
          <mxGeometry x="64" width="156" height="44" as="geometry">
            <mxRectangle width="156" height="44" as="alternateBounds" />
          </mxGeometry>
        </mxCell>
        <mxCell id="siUt0EGsxXiFv9ltFgaP-88" value="" style="shape=tableRow;horizontal=0;startSize=0;swimlaneHead=0;swimlaneBody=0;strokeColor=inherit;top=0;left=0;bottom=0;right=0;collapsible=0;dropTarget=0;fillColor=none;points=[[0,0.5],[1,0.5]];portConstraint=eastwest;align=center;verticalAlign=middle;fontFamily=Helvetica;fontSize=16;fontColor=default;fontStyle=0;" vertex="1" parent="siUt0EGsxXiFv9ltFgaP-75">
          <mxGeometry y="176" width="220" height="44" as="geometry" />
        </mxCell>
        <mxCell id="siUt0EGsxXiFv9ltFgaP-89" value="" style="shape=partialRectangle;html=1;whiteSpace=wrap;connectable=0;strokeColor=inherit;overflow=hidden;fillColor=none;top=0;left=0;bottom=0;right=0;pointerEvents=1;align=center;verticalAlign=middle;fontFamily=Helvetica;fontSize=16;fontColor=default;fontStyle=0;" vertex="1" parent="siUt0EGsxXiFv9ltFgaP-88">
          <mxGeometry width="64" height="44" as="geometry">
            <mxRectangle width="64" height="44" as="alternateBounds" />
          </mxGeometry>
        </mxCell>
        <mxCell id="siUt0EGsxXiFv9ltFgaP-90" value="" style="shape=partialRectangle;html=1;whiteSpace=wrap;connectable=0;strokeColor=inherit;overflow=hidden;fillColor=none;top=0;left=0;bottom=0;right=0;pointerEvents=1;align=center;verticalAlign=middle;fontFamily=Helvetica;fontSize=16;fontColor=default;fontStyle=0;" vertex="1" parent="siUt0EGsxXiFv9ltFgaP-88">
          <mxGeometry x="64" width="156" height="44" as="geometry">
            <mxRectangle width="156" height="44" as="alternateBounds" />
          </mxGeometry>
        </mxCell>
        <mxCell id="siUt0EGsxXiFv9ltFgaP-91" value="" style="shape=tableRow;horizontal=0;startSize=0;swimlaneHead=0;swimlaneBody=0;strokeColor=inherit;top=0;left=0;bottom=0;right=0;collapsible=0;dropTarget=0;fillColor=none;points=[[0,0.5],[1,0.5]];portConstraint=eastwest;align=center;verticalAlign=middle;fontFamily=Helvetica;fontSize=16;fontColor=default;fontStyle=0;" vertex="1" parent="siUt0EGsxXiFv9ltFgaP-75">
          <mxGeometry y="220" width="220" height="44" as="geometry" />
        </mxCell>
        <mxCell id="siUt0EGsxXiFv9ltFgaP-92" value="" style="shape=partialRectangle;html=1;whiteSpace=wrap;connectable=0;strokeColor=inherit;overflow=hidden;fillColor=none;top=0;left=0;bottom=0;right=0;pointerEvents=1;align=center;verticalAlign=middle;fontFamily=Helvetica;fontSize=16;fontColor=default;fontStyle=0;" vertex="1" parent="siUt0EGsxXiFv9ltFgaP-91">
          <mxGeometry width="64" height="44" as="geometry">
            <mxRectangle width="64" height="44" as="alternateBounds" />
          </mxGeometry>
        </mxCell>
        <mxCell id="siUt0EGsxXiFv9ltFgaP-93" value="" style="shape=partialRectangle;html=1;whiteSpace=wrap;connectable=0;strokeColor=inherit;overflow=hidden;fillColor=none;top=0;left=0;bottom=0;right=0;pointerEvents=1;align=center;verticalAlign=middle;fontFamily=Helvetica;fontSize=16;fontColor=default;fontStyle=0;" vertex="1" parent="siUt0EGsxXiFv9ltFgaP-91">
          <mxGeometry x="64" width="156" height="44" as="geometry">
            <mxRectangle width="156" height="44" as="alternateBounds" />
          </mxGeometry>
        </mxCell>
        <mxCell id="siUt0EGsxXiFv9ltFgaP-94" value="" style="shape=tableRow;horizontal=0;startSize=0;swimlaneHead=0;swimlaneBody=0;strokeColor=inherit;top=0;left=0;bottom=0;right=0;collapsible=0;dropTarget=0;fillColor=none;points=[[0,0.5],[1,0.5]];portConstraint=eastwest;align=center;verticalAlign=middle;fontFamily=Helvetica;fontSize=16;fontColor=default;fontStyle=0;" vertex="1" parent="siUt0EGsxXiFv9ltFgaP-75">
          <mxGeometry y="264" width="220" height="44" as="geometry" />
        </mxCell>
        <mxCell id="siUt0EGsxXiFv9ltFgaP-95" value="" style="shape=partialRectangle;html=1;whiteSpace=wrap;connectable=0;strokeColor=inherit;overflow=hidden;fillColor=none;top=0;left=0;bottom=0;right=0;pointerEvents=1;align=center;verticalAlign=middle;fontFamily=Helvetica;fontSize=16;fontColor=default;fontStyle=0;" vertex="1" parent="siUt0EGsxXiFv9ltFgaP-94">
          <mxGeometry width="64" height="44" as="geometry">
            <mxRectangle width="64" height="44" as="alternateBounds" />
          </mxGeometry>
        </mxCell>
        <mxCell id="siUt0EGsxXiFv9ltFgaP-96" value="" style="shape=partialRectangle;html=1;whiteSpace=wrap;connectable=0;strokeColor=inherit;overflow=hidden;fillColor=none;top=0;left=0;bottom=0;right=0;pointerEvents=1;align=center;verticalAlign=middle;fontFamily=Helvetica;fontSize=16;fontColor=default;fontStyle=0;" vertex="1" parent="siUt0EGsxXiFv9ltFgaP-94">
          <mxGeometry x="64" width="156" height="44" as="geometry">
            <mxRectangle width="156" height="44" as="alternateBounds" />
          </mxGeometry>
        </mxCell>
        <mxCell id="siUt0EGsxXiFv9ltFgaP-97" value="" style="shape=tableRow;horizontal=0;startSize=0;swimlaneHead=0;swimlaneBody=0;strokeColor=inherit;top=0;left=0;bottom=0;right=0;collapsible=0;dropTarget=0;fillColor=none;points=[[0,0.5],[1,0.5]];portConstraint=eastwest;align=center;verticalAlign=middle;fontFamily=Helvetica;fontSize=16;fontColor=default;fontStyle=0;" vertex="1" parent="siUt0EGsxXiFv9ltFgaP-75">
          <mxGeometry y="308" width="220" height="44" as="geometry" />
        </mxCell>
        <mxCell id="siUt0EGsxXiFv9ltFgaP-98" value="" style="shape=partialRectangle;html=1;whiteSpace=wrap;connectable=0;strokeColor=inherit;overflow=hidden;fillColor=none;top=0;left=0;bottom=0;right=0;pointerEvents=1;align=center;verticalAlign=middle;fontFamily=Helvetica;fontSize=16;fontColor=default;fontStyle=0;" vertex="1" parent="siUt0EGsxXiFv9ltFgaP-97">
          <mxGeometry width="64" height="44" as="geometry">
            <mxRectangle width="64" height="44" as="alternateBounds" />
          </mxGeometry>
        </mxCell>
        <mxCell id="siUt0EGsxXiFv9ltFgaP-99" value="" style="shape=partialRectangle;html=1;whiteSpace=wrap;connectable=0;strokeColor=inherit;overflow=hidden;fillColor=none;top=0;left=0;bottom=0;right=0;pointerEvents=1;align=center;verticalAlign=middle;fontFamily=Helvetica;fontSize=16;fontColor=default;fontStyle=0;" vertex="1" parent="siUt0EGsxXiFv9ltFgaP-97">
          <mxGeometry x="64" width="156" height="44" as="geometry">
            <mxRectangle width="156" height="44" as="alternateBounds" />
          </mxGeometry>
        </mxCell>
        <mxCell id="siUt0EGsxXiFv9ltFgaP-100" value="" style="shape=table;startSize=0;container=1;collapsible=0;childLayout=tableLayout;strokeColor=default;align=center;verticalAlign=middle;fontFamily=Helvetica;fontSize=16;fontColor=default;fontStyle=0;fillColor=default;" vertex="1" parent="1">
          <mxGeometry x="440" y="670" width="220" height="352" as="geometry" />
        </mxCell>
        <mxCell id="siUt0EGsxXiFv9ltFgaP-101" value="" style="shape=tableRow;horizontal=0;startSize=0;swimlaneHead=0;swimlaneBody=0;strokeColor=inherit;top=0;left=0;bottom=0;right=0;collapsible=0;dropTarget=0;fillColor=none;points=[[0,0.5],[1,0.5]];portConstraint=eastwest;align=center;verticalAlign=middle;fontFamily=Helvetica;fontSize=16;fontColor=default;fontStyle=0;" vertex="1" parent="siUt0EGsxXiFv9ltFgaP-100">
          <mxGeometry width="220" height="44" as="geometry" />
        </mxCell>
        <mxCell id="siUt0EGsxXiFv9ltFgaP-102" value="&lt;font style=&quot;font-size: 9px;&quot;&gt;Colum Name&lt;/font&gt;" style="shape=partialRectangle;html=1;whiteSpace=wrap;connectable=0;strokeColor=inherit;overflow=hidden;fillColor=none;top=0;left=0;bottom=0;right=0;pointerEvents=1;align=center;verticalAlign=middle;fontFamily=Helvetica;fontSize=16;fontColor=default;fontStyle=0;" vertex="1" parent="siUt0EGsxXiFv9ltFgaP-101">
          <mxGeometry width="64" height="44" as="geometry">
            <mxRectangle width="64" height="44" as="alternateBounds" />
          </mxGeometry>
        </mxCell>
        <mxCell id="siUt0EGsxXiFv9ltFgaP-103" value="&lt;font size=&quot;1&quot;&gt;Data Type&lt;/font&gt;" style="shape=partialRectangle;html=1;whiteSpace=wrap;connectable=0;strokeColor=inherit;overflow=hidden;fillColor=none;top=0;left=0;bottom=0;right=0;pointerEvents=1;align=center;verticalAlign=middle;fontFamily=Helvetica;fontSize=16;fontColor=default;fontStyle=0;" vertex="1" parent="siUt0EGsxXiFv9ltFgaP-101">
          <mxGeometry x="64" width="156" height="44" as="geometry">
            <mxRectangle width="156" height="44" as="alternateBounds" />
          </mxGeometry>
        </mxCell>
        <mxCell id="siUt0EGsxXiFv9ltFgaP-104" value="" style="shape=tableRow;horizontal=0;startSize=0;swimlaneHead=0;swimlaneBody=0;strokeColor=inherit;top=0;left=0;bottom=0;right=0;collapsible=0;dropTarget=0;fillColor=none;points=[[0,0.5],[1,0.5]];portConstraint=eastwest;align=center;verticalAlign=middle;fontFamily=Helvetica;fontSize=16;fontColor=default;fontStyle=0;" vertex="1" parent="siUt0EGsxXiFv9ltFgaP-100">
          <mxGeometry y="44" width="220" height="44" as="geometry" />
        </mxCell>
        <mxCell id="siUt0EGsxXiFv9ltFgaP-105" value="" style="shape=partialRectangle;html=1;whiteSpace=wrap;connectable=0;strokeColor=inherit;overflow=hidden;fillColor=none;top=0;left=0;bottom=0;right=0;pointerEvents=1;align=center;verticalAlign=middle;fontFamily=Helvetica;fontSize=16;fontColor=default;fontStyle=0;" vertex="1" parent="siUt0EGsxXiFv9ltFgaP-104">
          <mxGeometry width="64" height="44" as="geometry">
            <mxRectangle width="64" height="44" as="alternateBounds" />
          </mxGeometry>
        </mxCell>
        <mxCell id="siUt0EGsxXiFv9ltFgaP-106" value="" style="shape=partialRectangle;html=1;whiteSpace=wrap;connectable=0;strokeColor=inherit;overflow=hidden;fillColor=none;top=0;left=0;bottom=0;right=0;pointerEvents=1;align=center;verticalAlign=middle;fontFamily=Helvetica;fontSize=16;fontColor=default;fontStyle=0;" vertex="1" parent="siUt0EGsxXiFv9ltFgaP-104">
          <mxGeometry x="64" width="156" height="44" as="geometry">
            <mxRectangle width="156" height="44" as="alternateBounds" />
          </mxGeometry>
        </mxCell>
        <mxCell id="siUt0EGsxXiFv9ltFgaP-107" value="" style="shape=tableRow;horizontal=0;startSize=0;swimlaneHead=0;swimlaneBody=0;strokeColor=inherit;top=0;left=0;bottom=0;right=0;collapsible=0;dropTarget=0;fillColor=none;points=[[0,0.5],[1,0.5]];portConstraint=eastwest;align=center;verticalAlign=middle;fontFamily=Helvetica;fontSize=16;fontColor=default;fontStyle=0;" vertex="1" parent="siUt0EGsxXiFv9ltFgaP-100">
          <mxGeometry y="88" width="220" height="44" as="geometry" />
        </mxCell>
        <mxCell id="siUt0EGsxXiFv9ltFgaP-108" value="" style="shape=partialRectangle;html=1;whiteSpace=wrap;connectable=0;strokeColor=inherit;overflow=hidden;fillColor=none;top=0;left=0;bottom=0;right=0;pointerEvents=1;align=center;verticalAlign=middle;fontFamily=Helvetica;fontSize=16;fontColor=default;fontStyle=0;" vertex="1" parent="siUt0EGsxXiFv9ltFgaP-107">
          <mxGeometry width="64" height="44" as="geometry">
            <mxRectangle width="64" height="44" as="alternateBounds" />
          </mxGeometry>
        </mxCell>
        <mxCell id="siUt0EGsxXiFv9ltFgaP-109" value="" style="shape=partialRectangle;html=1;whiteSpace=wrap;connectable=0;strokeColor=inherit;overflow=hidden;fillColor=none;top=0;left=0;bottom=0;right=0;pointerEvents=1;align=center;verticalAlign=middle;fontFamily=Helvetica;fontSize=16;fontColor=default;fontStyle=0;" vertex="1" parent="siUt0EGsxXiFv9ltFgaP-107">
          <mxGeometry x="64" width="156" height="44" as="geometry">
            <mxRectangle width="156" height="44" as="alternateBounds" />
          </mxGeometry>
        </mxCell>
        <mxCell id="siUt0EGsxXiFv9ltFgaP-110" value="" style="shape=tableRow;horizontal=0;startSize=0;swimlaneHead=0;swimlaneBody=0;strokeColor=inherit;top=0;left=0;bottom=0;right=0;collapsible=0;dropTarget=0;fillColor=none;points=[[0,0.5],[1,0.5]];portConstraint=eastwest;align=center;verticalAlign=middle;fontFamily=Helvetica;fontSize=16;fontColor=default;fontStyle=0;" vertex="1" parent="siUt0EGsxXiFv9ltFgaP-100">
          <mxGeometry y="132" width="220" height="44" as="geometry" />
        </mxCell>
        <mxCell id="siUt0EGsxXiFv9ltFgaP-111" value="" style="shape=partialRectangle;html=1;whiteSpace=wrap;connectable=0;strokeColor=inherit;overflow=hidden;fillColor=none;top=0;left=0;bottom=0;right=0;pointerEvents=1;align=center;verticalAlign=middle;fontFamily=Helvetica;fontSize=16;fontColor=default;fontStyle=0;" vertex="1" parent="siUt0EGsxXiFv9ltFgaP-110">
          <mxGeometry width="64" height="44" as="geometry">
            <mxRectangle width="64" height="44" as="alternateBounds" />
          </mxGeometry>
        </mxCell>
        <mxCell id="siUt0EGsxXiFv9ltFgaP-112" value="" style="shape=partialRectangle;html=1;whiteSpace=wrap;connectable=0;strokeColor=inherit;overflow=hidden;fillColor=none;top=0;left=0;bottom=0;right=0;pointerEvents=1;align=center;verticalAlign=middle;fontFamily=Helvetica;fontSize=16;fontColor=default;fontStyle=0;" vertex="1" parent="siUt0EGsxXiFv9ltFgaP-110">
          <mxGeometry x="64" width="156" height="44" as="geometry">
            <mxRectangle width="156" height="44" as="alternateBounds" />
          </mxGeometry>
        </mxCell>
        <mxCell id="siUt0EGsxXiFv9ltFgaP-113" value="" style="shape=tableRow;horizontal=0;startSize=0;swimlaneHead=0;swimlaneBody=0;strokeColor=inherit;top=0;left=0;bottom=0;right=0;collapsible=0;dropTarget=0;fillColor=none;points=[[0,0.5],[1,0.5]];portConstraint=eastwest;align=center;verticalAlign=middle;fontFamily=Helvetica;fontSize=16;fontColor=default;fontStyle=0;" vertex="1" parent="siUt0EGsxXiFv9ltFgaP-100">
          <mxGeometry y="176" width="220" height="44" as="geometry" />
        </mxCell>
        <mxCell id="siUt0EGsxXiFv9ltFgaP-114" value="" style="shape=partialRectangle;html=1;whiteSpace=wrap;connectable=0;strokeColor=inherit;overflow=hidden;fillColor=none;top=0;left=0;bottom=0;right=0;pointerEvents=1;align=center;verticalAlign=middle;fontFamily=Helvetica;fontSize=16;fontColor=default;fontStyle=0;" vertex="1" parent="siUt0EGsxXiFv9ltFgaP-113">
          <mxGeometry width="64" height="44" as="geometry">
            <mxRectangle width="64" height="44" as="alternateBounds" />
          </mxGeometry>
        </mxCell>
        <mxCell id="siUt0EGsxXiFv9ltFgaP-115" value="" style="shape=partialRectangle;html=1;whiteSpace=wrap;connectable=0;strokeColor=inherit;overflow=hidden;fillColor=none;top=0;left=0;bottom=0;right=0;pointerEvents=1;align=center;verticalAlign=middle;fontFamily=Helvetica;fontSize=16;fontColor=default;fontStyle=0;" vertex="1" parent="siUt0EGsxXiFv9ltFgaP-113">
          <mxGeometry x="64" width="156" height="44" as="geometry">
            <mxRectangle width="156" height="44" as="alternateBounds" />
          </mxGeometry>
        </mxCell>
        <mxCell id="siUt0EGsxXiFv9ltFgaP-116" value="" style="shape=tableRow;horizontal=0;startSize=0;swimlaneHead=0;swimlaneBody=0;strokeColor=inherit;top=0;left=0;bottom=0;right=0;collapsible=0;dropTarget=0;fillColor=none;points=[[0,0.5],[1,0.5]];portConstraint=eastwest;align=center;verticalAlign=middle;fontFamily=Helvetica;fontSize=16;fontColor=default;fontStyle=0;" vertex="1" parent="siUt0EGsxXiFv9ltFgaP-100">
          <mxGeometry y="220" width="220" height="44" as="geometry" />
        </mxCell>
        <mxCell id="siUt0EGsxXiFv9ltFgaP-117" value="" style="shape=partialRectangle;html=1;whiteSpace=wrap;connectable=0;strokeColor=inherit;overflow=hidden;fillColor=none;top=0;left=0;bottom=0;right=0;pointerEvents=1;align=center;verticalAlign=middle;fontFamily=Helvetica;fontSize=16;fontColor=default;fontStyle=0;" vertex="1" parent="siUt0EGsxXiFv9ltFgaP-116">
          <mxGeometry width="64" height="44" as="geometry">
            <mxRectangle width="64" height="44" as="alternateBounds" />
          </mxGeometry>
        </mxCell>
        <mxCell id="siUt0EGsxXiFv9ltFgaP-118" value="" style="shape=partialRectangle;html=1;whiteSpace=wrap;connectable=0;strokeColor=inherit;overflow=hidden;fillColor=none;top=0;left=0;bottom=0;right=0;pointerEvents=1;align=center;verticalAlign=middle;fontFamily=Helvetica;fontSize=16;fontColor=default;fontStyle=0;" vertex="1" parent="siUt0EGsxXiFv9ltFgaP-116">
          <mxGeometry x="64" width="156" height="44" as="geometry">
            <mxRectangle width="156" height="44" as="alternateBounds" />
          </mxGeometry>
        </mxCell>
        <mxCell id="siUt0EGsxXiFv9ltFgaP-119" value="" style="shape=tableRow;horizontal=0;startSize=0;swimlaneHead=0;swimlaneBody=0;strokeColor=inherit;top=0;left=0;bottom=0;right=0;collapsible=0;dropTarget=0;fillColor=none;points=[[0,0.5],[1,0.5]];portConstraint=eastwest;align=center;verticalAlign=middle;fontFamily=Helvetica;fontSize=16;fontColor=default;fontStyle=0;" vertex="1" parent="siUt0EGsxXiFv9ltFgaP-100">
          <mxGeometry y="264" width="220" height="44" as="geometry" />
        </mxCell>
        <mxCell id="siUt0EGsxXiFv9ltFgaP-120" value="" style="shape=partialRectangle;html=1;whiteSpace=wrap;connectable=0;strokeColor=inherit;overflow=hidden;fillColor=none;top=0;left=0;bottom=0;right=0;pointerEvents=1;align=center;verticalAlign=middle;fontFamily=Helvetica;fontSize=16;fontColor=default;fontStyle=0;" vertex="1" parent="siUt0EGsxXiFv9ltFgaP-119">
          <mxGeometry width="64" height="44" as="geometry">
            <mxRectangle width="64" height="44" as="alternateBounds" />
          </mxGeometry>
        </mxCell>
        <mxCell id="siUt0EGsxXiFv9ltFgaP-121" value="" style="shape=partialRectangle;html=1;whiteSpace=wrap;connectable=0;strokeColor=inherit;overflow=hidden;fillColor=none;top=0;left=0;bottom=0;right=0;pointerEvents=1;align=center;verticalAlign=middle;fontFamily=Helvetica;fontSize=16;fontColor=default;fontStyle=0;" vertex="1" parent="siUt0EGsxXiFv9ltFgaP-119">
          <mxGeometry x="64" width="156" height="44" as="geometry">
            <mxRectangle width="156" height="44" as="alternateBounds" />
          </mxGeometry>
        </mxCell>
        <mxCell id="siUt0EGsxXiFv9ltFgaP-122" value="" style="shape=tableRow;horizontal=0;startSize=0;swimlaneHead=0;swimlaneBody=0;strokeColor=inherit;top=0;left=0;bottom=0;right=0;collapsible=0;dropTarget=0;fillColor=none;points=[[0,0.5],[1,0.5]];portConstraint=eastwest;align=center;verticalAlign=middle;fontFamily=Helvetica;fontSize=16;fontColor=default;fontStyle=0;" vertex="1" parent="siUt0EGsxXiFv9ltFgaP-100">
          <mxGeometry y="308" width="220" height="44" as="geometry" />
        </mxCell>
        <mxCell id="siUt0EGsxXiFv9ltFgaP-123" value="" style="shape=partialRectangle;html=1;whiteSpace=wrap;connectable=0;strokeColor=inherit;overflow=hidden;fillColor=none;top=0;left=0;bottom=0;right=0;pointerEvents=1;align=center;verticalAlign=middle;fontFamily=Helvetica;fontSize=16;fontColor=default;fontStyle=0;" vertex="1" parent="siUt0EGsxXiFv9ltFgaP-122">
          <mxGeometry width="64" height="44" as="geometry">
            <mxRectangle width="64" height="44" as="alternateBounds" />
          </mxGeometry>
        </mxCell>
        <mxCell id="siUt0EGsxXiFv9ltFgaP-124" value="" style="shape=partialRectangle;html=1;whiteSpace=wrap;connectable=0;strokeColor=inherit;overflow=hidden;fillColor=none;top=0;left=0;bottom=0;right=0;pointerEvents=1;align=center;verticalAlign=middle;fontFamily=Helvetica;fontSize=16;fontColor=default;fontStyle=0;" vertex="1" parent="siUt0EGsxXiFv9ltFgaP-122">
          <mxGeometry x="64" width="156" height="44" as="geometry">
            <mxRectangle width="156" height="44" as="alternateBounds" />
          </mxGeometry>
        </mxCell>
        <mxCell id="siUt0EGsxXiFv9ltFgaP-125" value="" style="shape=table;startSize=0;container=1;collapsible=0;childLayout=tableLayout;strokeColor=default;align=center;verticalAlign=middle;fontFamily=Helvetica;fontSize=16;fontColor=default;fontStyle=0;fillColor=default;" vertex="1" parent="1">
          <mxGeometry x="840" y="610" width="220" height="342" as="geometry" />
        </mxCell>
        <mxCell id="siUt0EGsxXiFv9ltFgaP-126" value="" style="shape=tableRow;horizontal=0;startSize=0;swimlaneHead=0;swimlaneBody=0;strokeColor=inherit;top=0;left=0;bottom=0;right=0;collapsible=0;dropTarget=0;fillColor=none;points=[[0,0.5],[1,0.5]];portConstraint=eastwest;align=center;verticalAlign=middle;fontFamily=Helvetica;fontSize=16;fontColor=default;fontStyle=0;" vertex="1" parent="siUt0EGsxXiFv9ltFgaP-125">
          <mxGeometry width="220" height="43" as="geometry" />
        </mxCell>
        <mxCell id="siUt0EGsxXiFv9ltFgaP-127" value="&lt;font style=&quot;font-size: 9px;&quot;&gt;Colum Name&lt;/font&gt;" style="shape=partialRectangle;html=1;whiteSpace=wrap;connectable=0;strokeColor=inherit;overflow=hidden;fillColor=none;top=0;left=0;bottom=0;right=0;pointerEvents=1;align=center;verticalAlign=middle;fontFamily=Helvetica;fontSize=16;fontColor=default;fontStyle=0;" vertex="1" parent="siUt0EGsxXiFv9ltFgaP-126">
          <mxGeometry width="64" height="43" as="geometry">
            <mxRectangle width="64" height="43" as="alternateBounds" />
          </mxGeometry>
        </mxCell>
        <mxCell id="siUt0EGsxXiFv9ltFgaP-128" value="&lt;font size=&quot;1&quot;&gt;Data Type&lt;/font&gt;" style="shape=partialRectangle;html=1;whiteSpace=wrap;connectable=0;strokeColor=inherit;overflow=hidden;fillColor=none;top=0;left=0;bottom=0;right=0;pointerEvents=1;align=center;verticalAlign=middle;fontFamily=Helvetica;fontSize=16;fontColor=default;fontStyle=0;" vertex="1" parent="siUt0EGsxXiFv9ltFgaP-126">
          <mxGeometry x="64" width="156" height="43" as="geometry">
            <mxRectangle width="156" height="43" as="alternateBounds" />
          </mxGeometry>
        </mxCell>
        <mxCell id="siUt0EGsxXiFv9ltFgaP-129" value="" style="shape=tableRow;horizontal=0;startSize=0;swimlaneHead=0;swimlaneBody=0;strokeColor=inherit;top=0;left=0;bottom=0;right=0;collapsible=0;dropTarget=0;fillColor=none;points=[[0,0.5],[1,0.5]];portConstraint=eastwest;align=center;verticalAlign=middle;fontFamily=Helvetica;fontSize=16;fontColor=default;fontStyle=0;" vertex="1" parent="siUt0EGsxXiFv9ltFgaP-125">
          <mxGeometry y="43" width="220" height="43" as="geometry" />
        </mxCell>
        <mxCell id="siUt0EGsxXiFv9ltFgaP-130" value="" style="shape=partialRectangle;html=1;whiteSpace=wrap;connectable=0;strokeColor=inherit;overflow=hidden;fillColor=none;top=0;left=0;bottom=0;right=0;pointerEvents=1;align=center;verticalAlign=middle;fontFamily=Helvetica;fontSize=16;fontColor=default;fontStyle=0;" vertex="1" parent="siUt0EGsxXiFv9ltFgaP-129">
          <mxGeometry width="64" height="43" as="geometry">
            <mxRectangle width="64" height="43" as="alternateBounds" />
          </mxGeometry>
        </mxCell>
        <mxCell id="siUt0EGsxXiFv9ltFgaP-131" value="" style="shape=partialRectangle;html=1;whiteSpace=wrap;connectable=0;strokeColor=inherit;overflow=hidden;fillColor=none;top=0;left=0;bottom=0;right=0;pointerEvents=1;align=center;verticalAlign=middle;fontFamily=Helvetica;fontSize=16;fontColor=default;fontStyle=0;" vertex="1" parent="siUt0EGsxXiFv9ltFgaP-129">
          <mxGeometry x="64" width="156" height="43" as="geometry">
            <mxRectangle width="156" height="43" as="alternateBounds" />
          </mxGeometry>
        </mxCell>
        <mxCell id="siUt0EGsxXiFv9ltFgaP-132" value="" style="shape=tableRow;horizontal=0;startSize=0;swimlaneHead=0;swimlaneBody=0;strokeColor=inherit;top=0;left=0;bottom=0;right=0;collapsible=0;dropTarget=0;fillColor=none;points=[[0,0.5],[1,0.5]];portConstraint=eastwest;align=center;verticalAlign=middle;fontFamily=Helvetica;fontSize=16;fontColor=default;fontStyle=0;" vertex="1" parent="siUt0EGsxXiFv9ltFgaP-125">
          <mxGeometry y="86" width="220" height="42" as="geometry" />
        </mxCell>
        <mxCell id="siUt0EGsxXiFv9ltFgaP-133" value="" style="shape=partialRectangle;html=1;whiteSpace=wrap;connectable=0;strokeColor=inherit;overflow=hidden;fillColor=none;top=0;left=0;bottom=0;right=0;pointerEvents=1;align=center;verticalAlign=middle;fontFamily=Helvetica;fontSize=16;fontColor=default;fontStyle=0;" vertex="1" parent="siUt0EGsxXiFv9ltFgaP-132">
          <mxGeometry width="64" height="42" as="geometry">
            <mxRectangle width="64" height="42" as="alternateBounds" />
          </mxGeometry>
        </mxCell>
        <mxCell id="siUt0EGsxXiFv9ltFgaP-134" value="" style="shape=partialRectangle;html=1;whiteSpace=wrap;connectable=0;strokeColor=inherit;overflow=hidden;fillColor=none;top=0;left=0;bottom=0;right=0;pointerEvents=1;align=center;verticalAlign=middle;fontFamily=Helvetica;fontSize=16;fontColor=default;fontStyle=0;" vertex="1" parent="siUt0EGsxXiFv9ltFgaP-132">
          <mxGeometry x="64" width="156" height="42" as="geometry">
            <mxRectangle width="156" height="42" as="alternateBounds" />
          </mxGeometry>
        </mxCell>
        <mxCell id="siUt0EGsxXiFv9ltFgaP-135" value="" style="shape=tableRow;horizontal=0;startSize=0;swimlaneHead=0;swimlaneBody=0;strokeColor=inherit;top=0;left=0;bottom=0;right=0;collapsible=0;dropTarget=0;fillColor=none;points=[[0,0.5],[1,0.5]];portConstraint=eastwest;align=center;verticalAlign=middle;fontFamily=Helvetica;fontSize=16;fontColor=default;fontStyle=0;" vertex="1" parent="siUt0EGsxXiFv9ltFgaP-125">
          <mxGeometry y="128" width="220" height="43" as="geometry" />
        </mxCell>
        <mxCell id="siUt0EGsxXiFv9ltFgaP-136" value="" style="shape=partialRectangle;html=1;whiteSpace=wrap;connectable=0;strokeColor=inherit;overflow=hidden;fillColor=none;top=0;left=0;bottom=0;right=0;pointerEvents=1;align=center;verticalAlign=middle;fontFamily=Helvetica;fontSize=16;fontColor=default;fontStyle=0;" vertex="1" parent="siUt0EGsxXiFv9ltFgaP-135">
          <mxGeometry width="64" height="43" as="geometry">
            <mxRectangle width="64" height="43" as="alternateBounds" />
          </mxGeometry>
        </mxCell>
        <mxCell id="siUt0EGsxXiFv9ltFgaP-137" value="" style="shape=partialRectangle;html=1;whiteSpace=wrap;connectable=0;strokeColor=inherit;overflow=hidden;fillColor=none;top=0;left=0;bottom=0;right=0;pointerEvents=1;align=center;verticalAlign=middle;fontFamily=Helvetica;fontSize=16;fontColor=default;fontStyle=0;" vertex="1" parent="siUt0EGsxXiFv9ltFgaP-135">
          <mxGeometry x="64" width="156" height="43" as="geometry">
            <mxRectangle width="156" height="43" as="alternateBounds" />
          </mxGeometry>
        </mxCell>
        <mxCell id="siUt0EGsxXiFv9ltFgaP-138" value="" style="shape=tableRow;horizontal=0;startSize=0;swimlaneHead=0;swimlaneBody=0;strokeColor=inherit;top=0;left=0;bottom=0;right=0;collapsible=0;dropTarget=0;fillColor=none;points=[[0,0.5],[1,0.5]];portConstraint=eastwest;align=center;verticalAlign=middle;fontFamily=Helvetica;fontSize=16;fontColor=default;fontStyle=0;" vertex="1" parent="siUt0EGsxXiFv9ltFgaP-125">
          <mxGeometry y="171" width="220" height="43" as="geometry" />
        </mxCell>
        <mxCell id="siUt0EGsxXiFv9ltFgaP-139" value="" style="shape=partialRectangle;html=1;whiteSpace=wrap;connectable=0;strokeColor=inherit;overflow=hidden;fillColor=none;top=0;left=0;bottom=0;right=0;pointerEvents=1;align=center;verticalAlign=middle;fontFamily=Helvetica;fontSize=16;fontColor=default;fontStyle=0;" vertex="1" parent="siUt0EGsxXiFv9ltFgaP-138">
          <mxGeometry width="64" height="43" as="geometry">
            <mxRectangle width="64" height="43" as="alternateBounds" />
          </mxGeometry>
        </mxCell>
        <mxCell id="siUt0EGsxXiFv9ltFgaP-140" value="" style="shape=partialRectangle;html=1;whiteSpace=wrap;connectable=0;strokeColor=inherit;overflow=hidden;fillColor=none;top=0;left=0;bottom=0;right=0;pointerEvents=1;align=center;verticalAlign=middle;fontFamily=Helvetica;fontSize=16;fontColor=default;fontStyle=0;" vertex="1" parent="siUt0EGsxXiFv9ltFgaP-138">
          <mxGeometry x="64" width="156" height="43" as="geometry">
            <mxRectangle width="156" height="43" as="alternateBounds" />
          </mxGeometry>
        </mxCell>
        <mxCell id="siUt0EGsxXiFv9ltFgaP-141" value="" style="shape=tableRow;horizontal=0;startSize=0;swimlaneHead=0;swimlaneBody=0;strokeColor=inherit;top=0;left=0;bottom=0;right=0;collapsible=0;dropTarget=0;fillColor=none;points=[[0,0.5],[1,0.5]];portConstraint=eastwest;align=center;verticalAlign=middle;fontFamily=Helvetica;fontSize=16;fontColor=default;fontStyle=0;" vertex="1" parent="siUt0EGsxXiFv9ltFgaP-125">
          <mxGeometry y="214" width="220" height="43" as="geometry" />
        </mxCell>
        <mxCell id="siUt0EGsxXiFv9ltFgaP-142" value="" style="shape=partialRectangle;html=1;whiteSpace=wrap;connectable=0;strokeColor=inherit;overflow=hidden;fillColor=none;top=0;left=0;bottom=0;right=0;pointerEvents=1;align=center;verticalAlign=middle;fontFamily=Helvetica;fontSize=16;fontColor=default;fontStyle=0;" vertex="1" parent="siUt0EGsxXiFv9ltFgaP-141">
          <mxGeometry width="64" height="43" as="geometry">
            <mxRectangle width="64" height="43" as="alternateBounds" />
          </mxGeometry>
        </mxCell>
        <mxCell id="siUt0EGsxXiFv9ltFgaP-143" value="" style="shape=partialRectangle;html=1;whiteSpace=wrap;connectable=0;strokeColor=inherit;overflow=hidden;fillColor=none;top=0;left=0;bottom=0;right=0;pointerEvents=1;align=center;verticalAlign=middle;fontFamily=Helvetica;fontSize=16;fontColor=default;fontStyle=0;" vertex="1" parent="siUt0EGsxXiFv9ltFgaP-141">
          <mxGeometry x="64" width="156" height="43" as="geometry">
            <mxRectangle width="156" height="43" as="alternateBounds" />
          </mxGeometry>
        </mxCell>
        <mxCell id="siUt0EGsxXiFv9ltFgaP-144" value="" style="shape=tableRow;horizontal=0;startSize=0;swimlaneHead=0;swimlaneBody=0;strokeColor=inherit;top=0;left=0;bottom=0;right=0;collapsible=0;dropTarget=0;fillColor=none;points=[[0,0.5],[1,0.5]];portConstraint=eastwest;align=center;verticalAlign=middle;fontFamily=Helvetica;fontSize=16;fontColor=default;fontStyle=0;" vertex="1" parent="siUt0EGsxXiFv9ltFgaP-125">
          <mxGeometry y="257" width="220" height="42" as="geometry" />
        </mxCell>
        <mxCell id="siUt0EGsxXiFv9ltFgaP-145" value="" style="shape=partialRectangle;html=1;whiteSpace=wrap;connectable=0;strokeColor=inherit;overflow=hidden;fillColor=none;top=0;left=0;bottom=0;right=0;pointerEvents=1;align=center;verticalAlign=middle;fontFamily=Helvetica;fontSize=16;fontColor=default;fontStyle=0;" vertex="1" parent="siUt0EGsxXiFv9ltFgaP-144">
          <mxGeometry width="64" height="42" as="geometry">
            <mxRectangle width="64" height="42" as="alternateBounds" />
          </mxGeometry>
        </mxCell>
        <mxCell id="siUt0EGsxXiFv9ltFgaP-146" value="" style="shape=partialRectangle;html=1;whiteSpace=wrap;connectable=0;strokeColor=inherit;overflow=hidden;fillColor=none;top=0;left=0;bottom=0;right=0;pointerEvents=1;align=center;verticalAlign=middle;fontFamily=Helvetica;fontSize=16;fontColor=default;fontStyle=0;" vertex="1" parent="siUt0EGsxXiFv9ltFgaP-144">
          <mxGeometry x="64" width="156" height="42" as="geometry">
            <mxRectangle width="156" height="42" as="alternateBounds" />
          </mxGeometry>
        </mxCell>
        <mxCell id="siUt0EGsxXiFv9ltFgaP-147" value="" style="shape=tableRow;horizontal=0;startSize=0;swimlaneHead=0;swimlaneBody=0;strokeColor=inherit;top=0;left=0;bottom=0;right=0;collapsible=0;dropTarget=0;fillColor=none;points=[[0,0.5],[1,0.5]];portConstraint=eastwest;align=center;verticalAlign=middle;fontFamily=Helvetica;fontSize=16;fontColor=default;fontStyle=0;" vertex="1" parent="siUt0EGsxXiFv9ltFgaP-125">
          <mxGeometry y="299" width="220" height="43" as="geometry" />
        </mxCell>
        <mxCell id="siUt0EGsxXiFv9ltFgaP-148" value="" style="shape=partialRectangle;html=1;whiteSpace=wrap;connectable=0;strokeColor=inherit;overflow=hidden;fillColor=none;top=0;left=0;bottom=0;right=0;pointerEvents=1;align=center;verticalAlign=middle;fontFamily=Helvetica;fontSize=16;fontColor=default;fontStyle=0;" vertex="1" parent="siUt0EGsxXiFv9ltFgaP-147">
          <mxGeometry width="64" height="43" as="geometry">
            <mxRectangle width="64" height="43" as="alternateBounds" />
          </mxGeometry>
        </mxCell>
        <mxCell id="siUt0EGsxXiFv9ltFgaP-149" value="" style="shape=partialRectangle;html=1;whiteSpace=wrap;connectable=0;strokeColor=inherit;overflow=hidden;fillColor=none;top=0;left=0;bottom=0;right=0;pointerEvents=1;align=center;verticalAlign=middle;fontFamily=Helvetica;fontSize=16;fontColor=default;fontStyle=0;" vertex="1" parent="siUt0EGsxXiFv9ltFgaP-147">
          <mxGeometry x="64" width="156" height="43" as="geometry">
            <mxRectangle width="156" height="43" as="alternateBounds" />
          </mxGeometry>
        </mxCell>
        <mxCell id="siUt0EGsxXiFv9ltFgaP-151" style="edgeStyle=orthogonalEdgeStyle;rounded=0;orthogonalLoop=1;jettySize=auto;html=1;exitX=1;exitY=0.5;exitDx=0;exitDy=0;entryX=0;entryY=0.5;entryDx=0;entryDy=0;fontFamily=Helvetica;fontSize=16;fontColor=default;fontStyle=0;" edge="1" parent="1" source="siUt0EGsxXiFv9ltFgaP-113" target="siUt0EGsxXiFv9ltFgaP-79">
          <mxGeometry relative="1" as="geometry" />
        </mxCell>
        <mxCell id="siUt0EGsxXiFv9ltFgaP-152" style="edgeStyle=orthogonalEdgeStyle;rounded=0;orthogonalLoop=1;jettySize=auto;html=1;exitX=1;exitY=0.5;exitDx=0;exitDy=0;entryX=0.003;entryY=0.731;entryDx=0;entryDy=0;entryPerimeter=0;fontFamily=Helvetica;fontSize=16;fontColor=default;fontStyle=0;" edge="1" parent="1" source="siUt0EGsxXiFv9ltFgaP-110" target="siUt0EGsxXiFv9ltFgaP-129">
          <mxGeometry relative="1" as="geometry" />
        </mxCell>
        <mxCell id="siUt0EGsxXiFv9ltFgaP-153" style="edgeStyle=orthogonalEdgeStyle;rounded=0;orthogonalLoop=1;jettySize=auto;html=1;exitX=1;exitY=0.5;exitDx=0;exitDy=0;entryX=0.002;entryY=0.734;entryDx=0;entryDy=0;entryPerimeter=0;fontFamily=Helvetica;fontSize=16;fontColor=default;fontStyle=0;" edge="1" parent="1" source="siUt0EGsxXiFv9ltFgaP-43" target="siUt0EGsxXiFv9ltFgaP-104">
          <mxGeometry relative="1" as="geometry" />
        </mxCell>
      </root>
    </mxGraphModel>
  </diagram>
</mxfile>
